<svg xmlns="http://www.w3.org/2000/svg" width="3840" height="2160" viewBox="0 0 3840 2160">
  <defs>
    <linearGradient id="sky" x1="0" y1="0" x2="1" y2="1">
      <stop offset="0" stop-color="#070a0f"/>
      <stop offset="0.42" stop-color="#111927"/>
      <stop offset="1" stop-color="#0d241f"/>
    </linearGradient>
    <radialGradient id="glow" cx="68%" cy="34%" r="58%">
      <stop offset="0" stop-color="#4dd6b1" stop-opacity="0.72"/>
      <stop offset="0.3" stop-color="#4d8dff" stop-opacity="0.32"/>
      <stop offset="0.68" stop-color="#101928" stop-opacity="0.2"/>
      <stop offset="1" stop-color="#05070b" stop-opacity="0"/>
    </radialGradient>
    <linearGradient id="ridge" x1="0" y1="0" x2="1" y2="0">
      <stop offset="0" stop-color="#70ffe0" stop-opacity="0.18"/>
      <stop offset="0.5" stop-color="#8aa8ff" stop-opacity="0.5"/>
      <stop offset="1" stop-color="#70ffe0" stop-opacity="0.18"/>
    </linearGradient>
    <filter id="soft" x="-20%" y="-20%" width="140%" height="140%">
      <feGaussianBlur stdDeviation="28"/>
    </filter>
  </defs>

  <rect width="3840" height="2160" fill="url(#sky)"/>
  <rect width="3840" height="2160" fill="url(#glow)"/>

  <g opacity="0.34" stroke="#7bf9dd" stroke-width="2">
    <path d="M0 320H3840"/>
    <path d="M0 520H3840"/>
    <path d="M0 720H3840"/>
    <path d="M0 920H3840"/>
    <path d="M0 1120H3840"/>
    <path d="M0 1320H3840"/>
  </g>

  <g opacity="0.22" stroke="#8aa8ff" stroke-width="3">
    <path d="M320 0L1240 2160"/>
    <path d="M980 0L1900 2160"/>
    <path d="M1640 0L2560 2160"/>
    <path d="M2300 0L3220 2160"/>
    <path d="M2960 0L3840 2064"/>
  </g>

  <g filter="url(#soft)" opacity="0.48">
    <ellipse cx="2710" cy="720" rx="570" ry="330" fill="#42dcb4"/>
    <ellipse cx="2170" cy="610" rx="430" ry="260" fill="#657cff"/>
  </g>

  <path d="M0 1510L430 1320L850 1460L1270 1210L1700 1420L2150 1050L2600 1340L3040 1160L3840 1380V2160H0Z"
        fill="#071017"/>
  <path d="M0 1510L430 1320L850 1460L1270 1210L1700 1420L2150 1050L2600 1340L3040 1160L3840 1380"
        fill="none" stroke="url(#ridge)" stroke-width="10" stroke-linejoin="round"/>

  <g opacity="0.5" stroke="#7bf9dd" stroke-width="2">
    <path d="M0 1740H3840"/>
    <path d="M0 1860H3840"/>
    <path d="M0 1980H3840"/>
    <path d="M0 2100H3840"/>
    <path d="M420 1530L0 2160"/>
    <path d="M820 1465L220 2160"/>
    <path d="M1280 1215L720 2160"/>
    <path d="M1700 1425L1330 2160"/>
    <path d="M2150 1055L1990 2160"/>
    <path d="M2600 1345L2770 2160"/>
    <path d="M3040 1165L3520 2160"/>
  </g>

  <g transform="translate(250 250)">
    <text x="0" y="0"
          font-family="Adwaita Sans, Cantarell, Inter, Segoe UI, sans-serif"
          font-size="210"
          font-weight="800"
          letter-spacing="0"
          fill="#f4f7f8">ZenithOS</text>
    <text x="8" y="110"
          font-family="Adwaita Sans, Cantarell, Inter, Segoe UI, sans-serif"
          font-size="58"
          font-weight="500"
          letter-spacing="8"
          fill="#83f5db">WORKSTATION PREVIEW</text>
    <rect x="0" y="165" width="780" height="8" rx="4" fill="#83f5db"/>
    <rect x="810" y="165" width="250" height="8" rx="4" fill="#8aa8ff"/>
  </g>
</svg>
